<svg width="91" height="91" viewBox="0 0 91 91" fill="none" xmlns="http://www.w3.org/2000/svg">
<g filter="url(#filter0_d_7005_4056)">
<path d="M40.7388 39.2417L27.3403 29.6713C27.0825 29.4871 26.741 29.4699 26.4659 29.6271C25.997 29.895 25.9157 30.5376 26.303 30.9139L40.0305 44.2492C40.4574 44.6638 41.1366 44.6638 41.5634 44.2492L55.2909 30.9139C55.6783 30.5376 55.5969 29.895 55.128 29.6271C54.8529 29.4699 54.5115 29.4871 54.2536 29.6713L40.8551 39.2417C40.8203 39.2665 40.7736 39.2665 40.7388 39.2417Z" fill="#757471"/>
<path d="M27.402 47.767L37.3374 40.7538C37.523 40.6228 37.7446 40.5524 37.9718 40.5524H43.6185C43.8457 40.5524 44.0673 40.6228 44.2529 40.7538L54.0589 47.6757C54.4247 47.9339 54.9345 47.8057 55.1348 47.4053C55.2842 47.1065 55.2121 46.7444 54.9596 46.5256L46.257 38.9833C46.0123 38.7712 45.6866 38.6778 45.3668 38.7277L40.8106 39.4396C40.8004 39.4412 40.79 39.4412 40.7797 39.4396L36.2236 38.7277C35.9037 38.6778 35.578 38.7712 35.3334 38.9833L26.7504 46.4218C26.4275 46.7017 26.3353 47.1648 26.5264 47.5469C26.6894 47.8729 27.1043 47.9772 27.402 47.767Z" fill="#757471"/>
<path d="M25.5532 30.8628C25.5532 29.8963 26.3367 29.1128 27.3032 29.1128H54.2973C55.2638 29.1128 56.0473 29.8963 56.0473 30.8628V46.7048C56.0473 48.2236 54.816 49.4548 53.2973 49.4548H28.3032C26.7844 49.4548 25.5532 48.2236 25.5532 46.7048V30.8628Z" stroke="black" stroke-width="2.5"/>
<circle cx="40.5" cy="40.5" r="40.5" fill="white"/>
<path d="M40.1642 40.9252L25.3562 30.348C25.0713 30.1445 24.6941 30.1254 24.3902 30.2991C23.8722 30.5951 23.7823 31.305 24.2103 31.7207L39.4559 46.5308C39.8827 46.9454 40.562 46.9454 40.9888 46.5308L56.2345 31.7207C56.6624 31.305 56.5726 30.5951 56.0546 30.2991C55.7506 30.1254 55.3734 30.1445 55.0885 30.348L40.2805 40.9252C40.2457 40.95 40.199 40.95 40.1642 40.9252Z" fill="#030303"/>
<path d="M25.433 50.3388L36.439 42.5698C36.6246 42.4388 36.8462 42.3685 37.0734 42.3685H43.3847C43.6119 42.3685 43.8335 42.4388 44.0191 42.5698L54.8821 50.2379C55.2862 50.5231 55.8494 50.3816 56.0706 49.9392C56.2357 49.609 56.1561 49.209 55.8772 48.9673L46.2226 40.6C45.9779 40.3879 45.6522 40.2945 45.3323 40.3444L40.2445 41.1394C40.2343 41.141 40.2238 41.141 40.2136 41.1394L35.1258 40.3444C34.8059 40.2945 34.4802 40.3879 34.2355 40.6L24.7132 48.8527C24.3565 49.1619 24.2546 49.6735 24.4657 50.0957C24.6457 50.4557 25.1041 50.5709 25.433 50.3388Z" fill="#030303"/>
<path d="M23.2529 31.3501C23.2529 30.3836 24.0364 29.6001 25.0029 29.6001H55.4529C56.4194 29.6001 57.2029 30.3836 57.2029 31.3501V49.5847C57.2029 51.1035 55.9717 52.3347 54.4529 52.3347H26.0029C24.4842 52.3347 23.2529 51.1035 23.2529 49.5847V31.3501Z" stroke="#030303" stroke-width="2.5"/>
</g>
<defs>
<filter id="filter0_d_7005_4056" x="0" y="0" width="91" height="91" filterUnits="userSpaceOnUse" color-interpolation-filters="sRGB">
<feFlood flood-opacity="0" result="BackgroundImageFix"/>
<feColorMatrix in="SourceAlpha" type="matrix" values="0 0 0 0 0 0 0 0 0 0 0 0 0 0 0 0 0 0 127 0" result="hardAlpha"/>
<feOffset dx="5" dy="5"/>
<feGaussianBlur stdDeviation="2.5"/>
<feComposite in2="hardAlpha" operator="out"/>
<feColorMatrix type="matrix" values="0 0 0 0 0 0 0 0 0 0 0 0 0 0 0 0 0 0 0.3 0"/>
<feBlend mode="normal" in2="BackgroundImageFix" result="effect1_dropShadow_7005_4056"/>
<feBlend mode="normal" in="SourceGraphic" in2="effect1_dropShadow_7005_4056" result="shape"/>
</filter>
</defs>
</svg>
